<svg xmlns="http://www.w3.org/2000/svg" viewBox="0 0 2080 1080"><defs><style>.cls-1{fill:#5a3572;stroke:#e3dbe6;}.cls-1,.cls-2{stroke-miterlimit:10;stroke-width:5px;}.cls-2{fill:#925476;stroke:#ede1e7;}.cls-3{fill:#c7b7ce;}</style></defs><g id="Logo_long_-_dark" data-name="Logo long - dark"><path class="cls-1" d="M925.45,926.85a496.62,496.62,0,0,1-314.76,111.87C335.26,1038.72,112,815.43,112,540S335.26,41.28,610.69,41.28A499.21,499.21,0,0,1,738,57.69C542.09,104.09,396.31,280.18,396.31,490.3c0,245.54,199.05,444.58,444.58,444.58A446.92,446.92,0,0,0,925.45,926.85Z"/><path class="cls-2" d="M72.21,657.46C67.33,640.22,190.71,579,327.64,553.84c132.84-24.4,265.8-12.52,267.47,4.82,1.7,17.76-133.92,44.06-242.17,65.06C250.91,643.51,77.78,677.1,72.21,657.46Z"/><path class="cls-2" d="M46.91,822.83c1.66,3.55,94.78-39.14,251.81-95.18,157.39-56.17,273.06-70.78,274.7-65.06.83,2.92-28.44,9.68-57.83,38.55-16.88,16.58-34.64,42.43-28.92,49.4s32-10.27,79.52-30.12C624,696.3,696,666.25,728.84,693.92c16.81,14.17,16.83,39.59,16.87,43.37.38,41-40.55,63.88-34.94,72.29,6.48,9.72,72.61-3.83,90.36-45.78,20.35-48.1-29.85-109-26.51-110.85,3.87-2.18,81.12,70.62,66.27,137.35-23,103.49-242.49,132-241,137.35S833.39,954,881.85,804.76c35.4-109-58.27-213.08-125.3-251.81-43.86-25.34-94.92-35-96.38-31.32s34.12,13.2,34.94,27.71c1.57,27.9-133.54,51.61-235.82,79.53C214,695.84,44.58,817.82,46.91,822.83Z"/><path class="cls-2" d="M551.73,901.14c-11.35-5.13,5.5-135.9,84.77-166.61,33.93-13.14,76.07-6.7,79.09,5.17s-34.44,22.48-79.52,60.24C573.34,852.48,559.11,904.48,551.73,901.14Z"/><path class="cls-3" d="M567.54,450.8a132.24,132.24,0,0,1-8-14.57q-5.09-10.29-12-24.41t-14.8-29.95q-7.9-15.81-16-31.3T500.53,322a182.16,182.16,0,0,0-15-21.47,49.81,49.81,0,0,0-11-10.17q-5.32-3.39-8.48-5.65a38.18,38.18,0,0,1,9.72-5.08,27.16,27.16,0,0,1,8.36-1.47,31.55,31.55,0,0,1,13.67,2.94Q504,284,509,291.7q3.84,5.88,12.66,21.92t21.47,41.59q7.46,15.14,15,30.73t15.48,29.5a190.23,190.23,0,0,0,16.16,24.29q8.24,10.39,17.06,15.37a49.33,49.33,0,0,1-11.3,7,26.6,26.6,0,0,1-10.17,2,14.62,14.62,0,0,1-7-1.7,20.73,20.73,0,0,1-5.76-4.63A48.89,48.89,0,0,1,567.54,450.8Zm-99.22-4.52a105.52,105.52,0,0,1,1.24-11.75q1.24-8.8,3.28-21.81T477,384.81q2.14-14.91,4.18-30.17t3.28-28.93q1.25-13.66,1.24-23.39a100.27,100.27,0,0,0-.79-14,32.29,32.29,0,0,0-2.37-8.81q8.82,2.94,13.11,7.57a23.76,23.76,0,0,1,5.76,10.62,55.45,55.45,0,0,1,1.47,13.22A275.26,275.26,0,0,1,500,349.78q-2.94,20.57-6,43.51a368.49,368.49,0,0,0-3.05,48.47c0,3.17.11,6.33.34,9.5s.41,6.25.57,9.26a46.53,46.53,0,0,1-11.08-1.13,20.2,20.2,0,0,1-7.23-3.16,13,13,0,0,1-4-4.52A12,12,0,0,1,468.32,446.28Zm116.39,2.94a32.73,32.73,0,0,1-1.24-5.65,48.76,48.76,0,0,1-.34-6.1,275.56,275.56,0,0,1,1.81-30.17q1.8-16.38,4.29-34.58t4.3-37.4q1.8-19.21,1.8-38.65,0-4.51-.22-9.26t-.68-9a44.63,44.63,0,0,1,11,1.13,21.49,21.49,0,0,1,7.12,3.05,12.09,12.09,0,0,1,4,4.4,11.48,11.48,0,0,1,1.25,5.2,115,115,0,0,1-1.25,12.09q-1.25,9.17-3.16,22.38t-4.18,28.59q-2.26,15.36-4.18,30.85t-3.17,29.26q-1.24,13.79-1.24,23.73c0,3,.08,6,.23,8.93a67.63,67.63,0,0,0,.9,8.25Z"/><path class="cls-3" d="M678.05,439.5a128,128,0,0,0,.68,14.13,34.09,34.09,0,0,0,2,9.15,35.42,35.42,0,0,1-13.9-8.47,29.26,29.26,0,0,1-7.12-13.11,76,76,0,0,1-2-18.87,151.77,151.77,0,0,1,1.81-22.15q1.8-12.21,3.61-24.86a170.53,170.53,0,0,0,1.81-24.18q0-5.88-.11-11.64a64.27,64.27,0,0,0-1.25-11.41c1.06-.15,2.19-.27,3.39-.34s2.27-.12,3.17-.12q10.17,0,14.69,4.52t4.52,14.92q0,6.56-2.71,20.34t-5.54,32.32A283.16,283.16,0,0,0,678.05,439.5Zm10.17-130.62a55.47,55.47,0,0,1-5.88,1.58,30.28,30.28,0,0,1-6.33.68,20.42,20.42,0,0,1-6.32-1,11.17,11.17,0,0,1-5.31-3.62,10.43,10.43,0,0,1-2.15-6.89,21.17,21.17,0,0,1,1.35-7.46c.91-2.41,1.81-4.89,2.72-7.46a28.17,28.17,0,0,1,6-1.69,36.21,36.21,0,0,1,6.21-.57,20.53,20.53,0,0,1,6.33,1,11.61,11.61,0,0,1,5.31,3.5,10.42,10.42,0,0,1,2.15,7,21.55,21.55,0,0,1-1.36,7.35C690,303.79,689.12,306.32,688.22,308.88Z"/><path class="cls-3" d="M801.9,422.78a64.75,64.75,0,0,1-12.77,19.32,59.14,59.14,0,0,1-16.73,12.32,40.66,40.66,0,0,1-17.74,4.29q-12,0-19.89-6.1a35.37,35.37,0,0,1-11.63-16.27A64.46,64.46,0,0,1,719.41,414a86.23,86.23,0,0,1,3.05-22.15,101,101,0,0,1,8.92-22.38A83.77,83.77,0,0,1,745.85,350a66.75,66.75,0,0,1,19.77-13.67,59.56,59.56,0,0,1,25-5.09,15.34,15.34,0,0,1,7.12,1.58,10.35,10.35,0,0,1,4.63,5,68.69,68.69,0,0,0-43.17,27.92,80.47,80.47,0,0,0-11,22,78.28,78.28,0,0,0-3.73,23.73,49.94,49.94,0,0,0,2,14.46,23.13,23.13,0,0,0,6.55,10.85,16.58,16.58,0,0,0,11.53,4.07,29.51,29.51,0,0,0,16.72-5,46.36,46.36,0,0,0,13-13.45,80,80,0,0,0,9-19.43A109.62,109.62,0,0,0,808,379.84q1.57-16.27,3.39-26.78a90.67,90.67,0,0,1,4.29-16.95,26.06,26.06,0,0,1,6.11-9.83,26.7,26.7,0,0,1,9-5.43q-.69,5.2-1.47,10.51c-.53,3.54-1,7.05-1.25,10.51s-.45,7-.45,10.62q0,28.93-1.81,53.68a379.72,379.72,0,0,1-5.76,45,195.77,195.77,0,0,1-10.17,35.6,95.89,95.89,0,0,1-15,25.87,58.7,58.7,0,0,1-20.23,15.83,60.78,60.78,0,0,1-25.87,5.31q-11.76,0-19.55-4a29.37,29.37,0,0,1-11.75-10.06,22.58,22.58,0,0,1-4-12.43A28.1,28.1,0,0,1,719,490.35a17.19,17.19,0,0,1,14.68-7.45,22.24,22.24,0,0,1,5,.56,39.8,39.8,0,0,1,5.42,1.7,18.79,18.79,0,0,0-6.1,7.68,23.87,23.87,0,0,0-2.49,10.4q0,7.68,4.86,12.09t13.45,4.4a35,35,0,0,0,15.82-3.84q7.68-3.84,14.24-14t11.64-29.27q5.09-19.1,8-49.6Z"/><path class="cls-3" d="M964.39,462.78q-13.78,0-21-5.65t-7.23-20.79a102.19,102.19,0,0,1,1.35-15.48q1.37-8.7,3.17-18.31t3.16-19.21a129.38,129.38,0,0,0,1.36-18.19q0-14.91-10.4-14.92-5.88,0-13.33,6.22T907,374.19a113.83,113.83,0,0,0-11.64,27.57,127.64,127.64,0,0,0-4.63,35.48q0,5.2.23,10.74a100.54,100.54,0,0,0,1.13,11.41c-1.36.15-2.53.26-3.5.34s-1.85.11-2.6.11q-10.41,0-15.6-4.4t-5.2-14.81a170.34,170.34,0,0,1,1.59-20.11q1.57-12.66,4-29.15t4.86-35.49q2.49-19,4.07-39.21t1.58-40.11q0-9.27-.68-16.16a40.15,40.15,0,0,0-2-10.28q9,3.16,14.12,8.36A30.35,30.35,0,0,1,900,271.36a65.62,65.62,0,0,1,2.26,18.31q0,9.27-1.36,23.84t-3.61,32.43q-2.26,17.85-5,37.74l1.36.23a119.44,119.44,0,0,1,14.24-28.48Q916.47,343,926,336t17.63-7q14.46,0,19.77,8.7t5.31,23.39a154.32,154.32,0,0,1-2.14,25.43q-2.16,12.76-4.41,25.54a147.84,147.84,0,0,0-2.26,25.87q0,10.63,3.16,15.71a27.52,27.52,0,0,0,9.72,8.93c-1.51.14-2.94.22-4.29.22Z"/><path class="cls-3" d="M1076.48,329.67a23.16,23.16,0,0,1,.34,2.71c.07,1.06.11,2.11.11,3.16q0,10-3.84,13.34t-10.4,3.39q-9.27,0-17.06-.12t-15,.34a88.54,88.54,0,0,0-14.8,2.26,106.08,106.08,0,0,0-16.61,5.65,29.75,29.75,0,0,1-.34-3.16c-.08-1.2-.11-2.33-.11-3.39q0-7.91,3.73-11.87a18.2,18.2,0,0,1,10-5.19,72.8,72.8,0,0,1,14-1.25c3.61,0,7.3.12,11.07.34s7.38.34,10.85.34a95.3,95.3,0,0,0,15.48-1.24A26.09,26.09,0,0,0,1076.48,329.67ZM1034,445.15a152,152,0,0,0,.79,16.62q.79,7.11,2.38,10.5a37.76,37.76,0,0,1-13.9-8.47,29.89,29.89,0,0,1-7.57-13.22,68.64,68.64,0,0,1-2.26-18.76,173.29,173.29,0,0,1,2.26-27.91q2.25-13.91,5.19-28.93t5.2-32.32a294.32,294.32,0,0,0,2.26-38.08q0-3.61-.11-7.34c-.08-2.49-.11-4.94-.11-7.35q10.17,1.59,15.93,9t5.76,20.79a178.39,178.39,0,0,1-2.37,27.35q-2.37,15.15-5.54,32t-5.53,33.67A231.41,231.41,0,0,0,1034,445.15Z"/><path class="cls-3" d="M1169.59,449.67q2.25-13.32,4.4-29.6t4-33.56q1.8-17.29,3.39-34t2.37-31.07q.8-14.35.79-24.52a178.75,178.75,0,0,0-.67-18.08,44.74,44.74,0,0,0-2.49-10.85q9.72,3.16,15.37,7.91a26.67,26.67,0,0,1,8.13,12,97.13,97.13,0,0,1,20.23-7.12,90.77,90.77,0,0,1,20.9-2.6q12.66,0,21.93,4.52a33.51,33.51,0,0,1,14.35,13q5.09,8.49,5.08,20a44.19,44.19,0,0,1-5,20.79,50.59,50.59,0,0,1-14.46,16.72,78.16,78.16,0,0,1-23.28,11.75,66.39,66.39,0,0,1,17.4,6.56,50.16,50.16,0,0,1,13.11,10.39,43.52,43.52,0,0,1,8.25,13.56,45.07,45.07,0,0,1,2.82,16.05,48.57,48.57,0,0,1-4.74,21.36,50.87,50.87,0,0,1-13.22,17,61.83,61.83,0,0,1-20.12,11.07,79.23,79.23,0,0,1-25.65,4A99.87,99.87,0,0,1,1203.6,463a101.37,101.37,0,0,1-18-5.2A93.91,93.91,0,0,1,1169.59,449.67Zm65.08-157.07a66.1,66.1,0,0,0-14.23,1.59,58.36,58.36,0,0,0-12.89,4.29q0,7.45-.9,19T1204.39,343q-1.35,14-2.82,28.82t-2.83,28.92q-1.35,14.13-2.26,26.11t-.9,20.11a81.88,81.88,0,0,0,11.86,3.05,66.63,66.63,0,0,0,11.64,1q20.57,0,32.21-10.85t11.63-29.38q0-12-5.64-20.56t-16.62-13.56q-11-5-26.78-5.88l-.67-8.14q16.49-2.25,27.79-7.79t17.18-14.35a35.81,35.81,0,0,0,5.87-20.34,31.08,31.08,0,0,0-3.38-15,21.86,21.86,0,0,0-10-9.38Q1244.17,292.61,1234.67,292.6Z"/><path class="cls-3" d="M1352.64,375.77q5.88-17.4,12.55-27.68t13.44-14.81q6.78-4.51,12.21-4.52a15.82,15.82,0,0,1,10.73,3.62,22.49,22.49,0,0,1,6.33,9.38,35,35,0,0,1,2.15,12.32,40,40,0,0,1-2.38,13.78,23.49,23.49,0,0,1-7.45,10.62q-5.09,4.08-13.22,4.07c-.91,0-1.81,0-2.72-.11s-1.88-.19-2.93-.34a47.25,47.25,0,0,0,5.19-10.51A34.89,34.89,0,0,0,1389,359.5a10.63,10.63,0,0,0-1.47-5.88c-1-1.5-2.68-2.26-5.08-2.26q-5,0-11,6T1360,374.76q-5.55,11.4-9,27.91a181.23,181.23,0,0,0-3.5,37.51c0,3,.14,6.1.45,9.27s.52,6.48.68,9.94c-1.51.15-2.79.26-3.85.34s-2,.11-2.94.11q-9.7,0-14.8-4.52t-5.08-14.91a94.69,94.69,0,0,1,1.47-14.13q1.45-9.15,3.27-20.68t3.28-23.84a199.42,199.42,0,0,0,1.47-23.62,167,167,0,0,0-.9-17.4,116.34,116.34,0,0,0-2.94-16.5q14,5.65,19,15.6a51,51,0,0,1,5,23.05c0,1.51,0,3.35-.11,5.54s-.26,4.48-.57,6.89Z"/><path class="cls-3" d="M1463.38,462.78a34.81,34.81,0,0,1-21.35-7q-9.39-7-14.69-19.55T1422,407.64a96.33,96.33,0,0,1,4.85-31.08,77.67,77.67,0,0,1,13.68-25A64.3,64.3,0,0,1,1461.24,335a56.15,56.15,0,0,1,25.65-6q16.72,0,25.31,8.36t8.59,24.41a37.39,37.39,0,0,1-6.56,21.58,44.09,44.09,0,0,1-18,15,60.07,60.07,0,0,1-26.11,5.43,111,111,0,0,1-13.56-.79,122.89,122.89,0,0,1-12.2-2.15l.68-7.91h8.36q13.1,0,22.82-4.41A35.21,35.21,0,0,0,1491.41,376a33.09,33.09,0,0,0,5.42-18.76q0-7.9-3.73-12.2t-10.51-4.3a21.78,21.78,0,0,0-15.37,6.44,54,54,0,0,0-11.52,16.73,103.46,103.46,0,0,0-7.23,22,108.14,108.14,0,0,0-2.49,22.38q0,19.89,6,29.94t17.74,10.06q22.15,0,36.39-22.15,8.36,1.35,8.36,6.1-9.72,15.83-22,23.17T1463.38,462.78Z"/><path class="cls-3" d="M1585.87,462.78a34.81,34.81,0,0,1-21.35-7q-9.39-7-14.69-19.55t-5.31-28.59a96.33,96.33,0,0,1,4.85-31.08,77.67,77.67,0,0,1,13.68-25A64.3,64.3,0,0,1,1583.73,335a56.15,56.15,0,0,1,25.65-6q16.72,0,25.31,8.36t8.59,24.41a37.39,37.39,0,0,1-6.56,21.58,44.09,44.09,0,0,1-18,15,60.07,60.07,0,0,1-26.11,5.43,111,111,0,0,1-13.56-.79,122.89,122.89,0,0,1-12.2-2.15l.68-7.91h8.36q13.11,0,22.82-4.41A35.21,35.21,0,0,0,1613.9,376a33.09,33.09,0,0,0,5.42-18.76q0-7.9-3.73-12.2t-10.51-4.3a21.78,21.78,0,0,0-15.37,6.44,54,54,0,0,0-11.52,16.73,103.46,103.46,0,0,0-7.23,22,108.14,108.14,0,0,0-2.49,22.38q0,19.89,6,29.94t17.74,10.06q22.15,0,36.39-22.15,8.36,1.35,8.36,6.1-9.72,15.83-22,23.17T1585.87,462.78Z"/><path class="cls-3" d="M1679.21,437.92q9.49,0,19.1.79t20,.79q7.9,0,16-.56a133,133,0,0,0,16.27-2.15c.31,1.66.57,3.51.8,5.54a52,52,0,0,1,.34,5.54q0,6.33-3.62,9.71T1734.58,461a120.33,120.33,0,0,1-14.24-1.13q-9-1.12-19.66-2.14t-20.79-1a119.44,119.44,0,0,0-15.94,1,81.7,81.7,0,0,0-15,3.5q1.8-9,5.42-14a19.84,19.84,0,0,1,9.72-7.12A46.07,46.07,0,0,1,1679.21,437.92Zm-22.6,9.72q26.45-26.22,46.1-49.49t31.42-42.49q11.74-19.21,14.24-32.77a15.24,15.24,0,0,1,7.34,6.33,19.22,19.22,0,0,1,2.83,10.39q0,7-4.86,15.71a131.88,131.88,0,0,1-13.22,18.87q-8.37,10.17-18.88,21.7t-22,24.29Q1688,432.95,1677,447Zm15.59-116.16q10.62,1.57,21.36,2.37t21.81.79q9.27,0,18.64-.57t19.33-1.46a10.13,10.13,0,0,1,1.58,4.18,26.48,26.48,0,0,1,.45,4.4l-14.46,8.14a124.52,124.52,0,0,0-18.08,1.47q-9.94,1.47-19.78,3.05a113.14,113.14,0,0,1-18,1.58q-8.13,0-11.41-3.84t-3.27-10.85A27.29,27.29,0,0,1,1672.2,331.48Z"/><path class="cls-3" d="M1820.23,462.78a34.81,34.81,0,0,1-21.35-7q-9.39-7-14.69-19.55t-5.31-28.59a96.33,96.33,0,0,1,4.85-31.08,77.67,77.67,0,0,1,13.68-25A64.3,64.3,0,0,1,1818.09,335a56.12,56.12,0,0,1,25.65-6q16.71,0,25.31,8.36t8.59,24.41a37.39,37.39,0,0,1-6.56,21.58,44.09,44.09,0,0,1-18,15A60.1,60.1,0,0,1,1827,403.8a111,111,0,0,1-13.56-.79,122.89,122.89,0,0,1-12.2-2.15l.68-7.91h8.36q13.1,0,22.82-4.41A35.21,35.21,0,0,0,1848.26,376a33.09,33.09,0,0,0,5.42-18.76q0-7.9-3.73-12.2t-10.51-4.3a21.74,21.74,0,0,0-15.37,6.44,53.83,53.83,0,0,0-11.52,16.73,102.9,102.9,0,0,0-7.23,22,108.14,108.14,0,0,0-2.49,22.38q0,19.89,6,29.94t17.74,10.06q22.15,0,36.39-22.15,8.35,1.35,8.36,6.1-9.72,15.83-22,23.17T1820.23,462.78Z"/><path class="cls-3" d="M1045.63,576a183.17,183.17,0,0,1-1.47,19.89q-1.47,12.66-3.73,28.25T1035.91,656q-2.27,16.28-3.73,31.08T1030.71,713q0,17.19,3.17,24.64-9.5-3.39-15-8.25a27.89,27.89,0,0,1-8-11.75,47.55,47.55,0,0,1-2.49-16.16,168.1,168.1,0,0,1,1.36-18.65q1.35-11.62,3.27-26.1t3.84-30.06q1.92-15.58,3.28-30.73t1.36-28c0-3.16-.08-6.33-.23-9.49s-.38-6.17-.68-9q8.82.45,13.9,2.49a15.69,15.69,0,0,1,7.46,5.53,19.3,19.3,0,0,1,3,8.14A73.42,73.42,0,0,1,1045.63,576Z"/><path class="cls-3" d="M1114.11,652.4a112.85,112.85,0,0,1,14.57-27.12,81,81,0,0,1,18.2-18.42q9.48-6.68,17.62-6.67,13.34,0,18.42,8.7t5.09,23.39a145.34,145.34,0,0,1-2.15,23.73q-2.14,12.88-4.41,26.45a162.66,162.66,0,0,0-2.26,26.66q0,10.64,3.17,15.71a27.44,27.44,0,0,0,9.72,8.93c-1.51.14-2.94.22-4.3.22h-4.07q-15.14,0-21.69-5.65t-6.56-20.79a102.31,102.31,0,0,1,1.36-15.48q1.35-8.7,3.16-18.31t3.17-19.21a130.83,130.83,0,0,0,1.35-18.19q0-14.91-9-14.92-6.33,0-14.12,6.22t-14.92,17.74A111.16,111.16,0,0,0,1114.67,673a127.64,127.64,0,0,0-4.63,35.48q0,5.2.22,10.74a102.89,102.89,0,0,0,1.13,11.41c-1.5.15-2.82.26-4,.34s-2.15.11-3,.11q-9.72,0-14.81-4.52t-5.08-14.91a96.06,96.06,0,0,1,1.47-14.13q1.47-9.15,3.28-20.68t3.27-23.84a199.42,199.42,0,0,0,1.47-23.62,167,167,0,0,0-.9-17.4,114.94,114.94,0,0,0-2.94-16.5q14,5.65,19,15.6t5,23.05c0,2.87-.12,5.8-.34,8.81s-.57,6.11-1,9.27Z"/><path class="cls-3" d="M1255.58,652.4a112.87,112.87,0,0,1,14.58-27.12,81,81,0,0,1,18.19-18.42q9.5-6.68,17.63-6.67,13.33,0,18.42,8.7t5.08,23.39a145.34,145.34,0,0,1-2.15,23.73q-2.14,12.88-4.4,26.45a161.57,161.57,0,0,0-2.26,26.66q0,10.64,3.16,15.71a27.52,27.52,0,0,0,9.72,8.93c-1.51.14-2.94.22-4.29.22h-4.07q-15.15,0-21.7-5.65t-6.55-20.79a102.19,102.19,0,0,1,1.35-15.48q1.37-8.7,3.17-18.31t3.16-19.21a129.38,129.38,0,0,0,1.36-18.19q0-14.91-9-14.92-6.33,0-14.13,6.22t-14.91,17.74A110.79,110.79,0,0,0,1256.14,673a127.64,127.64,0,0,0-4.63,35.48q0,5.2.23,10.74a100.54,100.54,0,0,0,1.13,11.41c-1.51.15-2.83.26-4,.34s-2.14.11-3.05.11q-9.72,0-14.8-4.52T1226,711.61a96.06,96.06,0,0,1,1.47-14.13q1.47-9.15,3.28-20.68T1234,653a201.56,201.56,0,0,0,1.47-23.62,167,167,0,0,0-.91-17.4,113.57,113.57,0,0,0-2.94-16.5q14,5.65,19,15.6a51,51,0,0,1,5,23.05c0,2.87-.11,5.8-.34,8.81s-.56,6.11-1,9.27Z"/></g></svg>